<?xml version="1.0" standalone="no"?>
<!DOCTYPE svg PUBLIC "-//W3C//DTD SVG 20010904//EN"
 "http://www.w3.org/TR/2001/REC-SVG-20010904/DTD/svg10.dtd">
<svg version="1.0" xmlns="http://www.w3.org/2000/svg"
 width="492.961051pt" height="314.635391pt" viewBox="0 0 492.961051 314.635391"
 preserveAspectRatio="xMidYMid meet">
<metadata>
Created by potrace 1.12, written by Peter Selinger 2001-2015
</metadata>
<g transform="translate(-12.039392,321.968428) scale(0.100000,-0.100000)"
fill="#000000" stroke="none">
<path d="M2863 3173 c-32 -25 -81 -68 -110 -95 l-52 -48 -128 0 c-70 0 -168
-7 -218 -15 -120 -19 -283 -69 -339 -102 -55 -33 -84 -81 -68 -109 10 -17 11
-17 12 7 0 56 61 101 185 140 128 39 251 60 394 66 l145 6 -290 -306 -289
-306 -90 -1 c-49 0 -220 -7 -380 -15 -159 -8 -387 -19 -505 -25 -399 -18 -735
-42 -745 -52 -10 -10 114 -5 295 12 52 5 250 16 440 25 190 8 428 19 530 25
102 5 243 12 315 16 l129 6 -34 -41 c-64 -74 -266 -305 -346 -395 l-79 -89
-145 -53 c-80 -30 -179 -66 -220 -81 -69 -24 -405 -157 -475 -188 -273 -120
-519 -245 -612 -311 -75 -54 -81 -77 -26 -101 64 -26 219 -9 738 82 104 19
190 33 191 32 1 -1 -55 -67 -124 -147 -69 -80 -151 -179 -183 -220 -32 -41
-65 -82 -74 -91 -24 -25 -19 -59 8 -59 32 0 95 24 115 43 15 16 15 17 0 17 -9
0 -20 -5 -23 -10 -11 -18 -76 -40 -92 -32 -16 10 80 134 285 369 109 124 128
141 160 146 20 3 116 19 212 36 156 27 265 41 545 71 134 14 396 40 460 45 33
2 114 9 180 14 66 6 200 13 298 16 l178 6 -53 -47 c-29 -26 -111 -101 -182
-168 -70 -67 -147 -137 -169 -156 -23 -19 -66 -58 -97 -85 -88 -81 -130 -115
-141 -115 -6 0 -7 5 -4 10 3 6 1 10 -5 10 -14 0 -9 -32 5 -37 16 -5 184 137
390 332 77 73 173 161 212 196 l73 64 257 -1 c588 -3 1194 -52 1642 -134 57
-10 97 -13 90 -6 -5 6 -419 73 -494 81 -33 3 -91 10 -130 15 -242 32 -563 51
-993 59 l-354 6 41 30 c124 92 403 328 498 422 97 96 185 214 171 229 -3 2
-23 -25 -44 -62 -43 -73 -191 -222 -338 -340 -48 -38 -146 -117 -217 -175
l-131 -106 -66 -7 c-37 -3 -110 -6 -162 -6 -87 0 -422 -22 -530 -35 -25 -2
-74 -7 -110 -9 -36 -3 -85 -7 -110 -10 -25 -3 -108 -13 -185 -21 -315 -35
-720 -94 -746 -110 -24 -15 -2 14 73 99 46 50 139 158 207 239 68 81 126 145
129 142 3 -2 -9 -20 -26 -40 -30 -33 -48 -67 -93 -173 -21 -49 -23 -62 -10
-62 5 0 15 17 21 38 17 51 78 174 97 192 8 8 -2 -16 -22 -53 -21 -37 -34 -71
-30 -75 8 -9 17 5 80 117 31 58 52 86 57 78 5 -7 8 -1 8 16 0 33 -20 32 -35
-1 -5 -12 -13 -22 -17 -22 -15 0 -7 15 25 51 28 32 52 43 207 94 150 49 402
128 450 140 8 2 40 11 70 20 262 76 606 153 940 209 113 20 223 40 245 45 38
10 37 10 -15 5 -30 -3 -86 -11 -125 -19 -38 -7 -140 -25 -225 -39 -85 -15
-173 -31 -195 -36 -22 -4 -67 -14 -100 -20 -256 -52 -787 -201 -1088 -306 -55
-19 -101 -34 -103 -34 -4 0 180 215 345 403 l95 107 65 1 c36 1 80 3 96 5 17
2 291 5 610 6 454 2 597 -1 658 -11 42 -8 77 -17 77 -20 0 -4 -12 -12 -27 -18
l-28 -12 30 6 c17 3 36 10 43 16 22 17 -8 27 -126 43 -166 22 -1111 21 -1331
-2 l-54 -6 28 34 c37 45 292 315 434 460 88 90 119 117 135 113 12 -2 44 -6
71 -9 l50 -5 -61 17 -62 17 32 29 c17 15 51 47 76 70 25 23 59 51 75 63 17 12
27 23 23 23 -4 0 -33 -21 -65 -47z m-1328 -1405 c-37 -40 -120 -136 -185 -213
-65 -77 -147 -170 -181 -208 l-64 -67 -135 -25 c-74 -13 -243 -42 -375 -65
-313 -52 -478 -54 -459 -5 21 53 387 245 749 391 88 36 174 71 190 79 25 11
227 86 470 175 28 10 52 16 54 14 2 -2 -27 -36 -64 -76z"/>
<path d="M2564 2020 c-70 -28 -303 -207 -373 -286 -47 -53 -68 -113 -51 -144
6 -11 18 -20 27 -20 19 0 188 79 182 85 -3 2 -32 -9 -64 -24 -33 -16 -75 -32
-92 -36 -32 -6 -33 -5 -33 25 0 17 6 43 14 58 29 56 211 213 328 285 62 37 88
45 88 27 0 -5 5 -10 11 -10 13 0 8 42 -6 46 -5 1 -19 -1 -31 -6z"/>
<path d="M1698 1813 c-8 -21 -21 -54 -28 -73 -8 -19 -24 -56 -37 -82 -14 -29
-19 -49 -13 -53 11 -7 42 58 86 174 27 72 27 71 16 71 -5 0 -15 -17 -24 -37z"/>
<path d="M1819 1845 c-6 -9 -34 -108 -46 -162 -3 -13 -1 -23 6 -23 14 0 53
131 49 167 -2 15 -6 24 -9 18z"/>
<path d="M1918 1815 c0 -6 -2 -14 -3 -20 0 -5 -9 -34 -19 -62 -23 -68 -19 -97
14 -100 14 -1 18 0 8 3 -23 7 -23 27 3 103 16 46 18 66 10 74 -6 6 -12 7 -13
2z"/>
<path d="M2590 1791 c0 -5 -20 -42 -45 -82 -25 -40 -45 -77 -45 -81 0 -18 21
-6 30 17 5 14 28 52 49 84 22 32 37 61 34 65 -9 9 -23 7 -23 -3z"/>
<path d="M2660 1775 c0 -9 -13 -36 -30 -60 -30 -43 -39 -85 -20 -85 6 0 10 7
10 16 0 9 14 39 30 66 32 52 35 63 20 73 -5 3 -10 -1 -10 -10z"/>
<path d="M2801 1749 c-7 -26 -11 -55 -9 -65 6 -25 30 60 26 89 -2 16 -7 8 -17
-24z"/>
<path d="M2720 1771 c0 -7 -8 -25 -18 -39 -27 -40 -42 -81 -33 -86 13 -9 73
116 61 128 -7 7 -10 6 -10 -3z"/>
<path d="M2447 1705 c-21 -35 -37 -72 -34 -82 3 -15 6 -13 15 8 6 14 24 49 41
76 32 52 36 63 24 63 -5 0 -25 -29 -46 -65z"/>
<path d="M1846 983 c-12 -77 -8 -103 24 -131 42 -37 101 -52 206 -52 79 0 227
16 304 34 168 38 518 109 578 117 129 16 202 -2 202 -53 0 -42 -122 -142 -390
-320 -561 -371 -853 -542 -814 -475 5 8 2 7 -10 -2 -11 -9 -13 -18 -7 -24 28
-28 260 107 851 498 373 247 449 333 335 381 -19 8 -56 14 -82 14 -52 0 -197
-21 -278 -40 -467 -108 -703 -138 -808 -105 -32 10 -69 29 -83 44 -26 26 -28
48 -7 129 3 12 1 22 -5 22 -5 0 -12 -17 -16 -37z"/>
</g>
</svg>
